<svg viewBox="0 0 47.5 47.5" xml:space="preserve" xmlns="http://www.w3.org/2000/svg" enable-background="new 0 0 47.5 47.5"><defs><clipPath clipPathUnits="userSpaceOnUse" id="a"><path d="M0 38h38V0H0v38Z"></path></clipPath></defs><g clip-path="url(#a)" transform="matrix(1.25 0 0 -1.25 0 47.5)"><path d="M0 0a1.5 1.5 0 1 1-3 0v-9.5a1 1 0 0 0-2 0V0a1.5 1.5 0 1 1-3 0v-9.5a1 1 0 0 0-2 0V0a1.5 1.5 0 1 1-3 0v-9c0-.127.021-.249.051-.367A4.395 4.395 0 0 1-13-10c0-2.316 1.75-5.957 4-6.442V-32a2.5 2.5 0 1 1 5 0v15.558c2.25.485 4 4.126 4 6.442 0 .216-.021.426-.051.633.03.118.051.24.051.367v9z" transform="translate(20 35.5)" fill="#f2994a" fill-opacity="1" fill-rule="nonzero" stroke="none" class="fill-99aab5"></path><path d="M0 0c-.104 0-.204-.019-.306-.031C-.37-.021-.433 0-.5 0c-2.209 0-5-5.477-5-11 0-4.658 1.275-8.561 3-9.672V-33.5a2.5 2.5 0 1 1 5 0v31A2.5 2.5 0 0 1 0 0" transform="translate(28.5 37)" fill="#f2994a" fill-opacity="1" fill-rule="nonzero" stroke="none" class="fill-99aab5"></path></g></svg>