<svg viewBox="0 0 64 64" xml:space="preserve" xmlns="http://www.w3.org/2000/svg" enable-background="new 0 0 64 64"><path d="M-346.1-373.1c-12.6 0-22.9-10.3-22.9-22.9 0-12.6 10.3-22.9 22.9-22.9 12.6 0 22.9 10.3 22.9 22.9.1 12.6-10.2 22.9-22.9 22.9zm0-43.4c-11.3 0-20.4 9.2-20.4 20.4s9.2 20.4 20.4 20.4 20.4-9.2 20.4-20.4-9.1-20.4-20.4-20.4z" transform="translate(378 428)" fill="#4f4f4f" class="fill-134563"></path><path d="m-338.9-384.3-8.5-8.5v-15.5h2.7v14.4l7.7 7.7-1.9 1.9" transform="translate(378 428)" fill="#4f4f4f" class="fill-134563"></path></svg>